<?xml version="1.0" encoding="UTF-8" standalone="no"?>
<!-- Created with Inkscape (http://www.inkscape.org/) -->

<svg
   xmlns:dc="http://purl.org/dc/elements/1.1/"
   xmlns:cc="http://creativecommons.org/ns#"
   xmlns:rdf="http://www.w3.org/1999/02/22-rdf-syntax-ns#"
   xmlns:svg="http://www.w3.org/2000/svg"
   xmlns="http://www.w3.org/2000/svg"
   xmlns:sodipodi="http://sodipodi.sourceforge.net/DTD/sodipodi-0.dtd"
   xmlns:inkscape="http://www.inkscape.org/namespaces/inkscape"
   width="100"
   height="66.666664"
   id="svg2"
   version="1.1"
   inkscape:version="0.48.3.1 r9886"
   sodipodi:docname="New document 1">
  <defs
     id="defs4" />
  <sodipodi:namedview
     id="base"
     pagecolor="#ffffff"
     bordercolor="#666666"
     borderopacity="1.0"
     inkscape:pageopacity="0.0"
     inkscape:pageshadow="2"
     inkscape:zoom="8"
     inkscape:cx="41.822145"
     inkscape:cy="27.867943"
     inkscape:document-units="px"
     inkscape:current-layer="layer1"
     showgrid="false"
     fit-margin-top="0"
     fit-margin-left="0"
     fit-margin-right="0"
     fit-margin-bottom="0"
     inkscape:window-width="1877"
     inkscape:window-height="1388"
     inkscape:window-x="0"
     inkscape:window-y="24"
     inkscape:window-maximized="0" />
  <metadata
     id="metadata7">
    <rdf:RDF>
      <cc:Work
         rdf:about="">
        <dc:format>image/svg+xml</dc:format>
        <dc:type
           rdf:resource="http://purl.org/dc/dcmitype/StillImage" />
        <dc:title></dc:title>
      </cc:Work>
    </rdf:RDF>
  </metadata>
  <g
     inkscape:label="Layer 1"
     inkscape:groupmode="layer"
     id="layer1"
     transform="translate(8.2142944,-680.6955)">
    <path
       style="fill:#e00052;fill-opacity:1;fill-rule:nonzero;stroke:none;stroke-width:0.53033006000000005;stroke-linecap:round;stroke-linejoin:miter;stroke-miterlimit:4;stroke-opacity:1;stroke-dasharray:none;stroke-dashoffset:30"
       d="M 14.471357,53.045663 C 14.232547,52.511607 12.70425,49.131319 11.075142,45.533914 9.4460331,41.936508 7.9661691,38.65509 7.786555,38.241875 l -0.3265711,-0.751301 1.806579,0 1.8065791,0 0.42157,1.104854 c 2.07984,5.450855 3.260745,8.274232 3.437506,8.218585 0.193802,-0.06101 1.391048,-2.895883 3.097649,-7.334701 l 0.764615,-1.988738 1.821922,0 1.821921,0 -1.414702,3.137786 c -2.958639,6.56221 -5.670569,12.523699 -5.889983,12.947634 -0.226455,0.437537 -0.231181,0.433752 -0.662283,-0.530331 z"
       id="path3772"
       inkscape:connector-curvature="0"
       transform="translate(-8.2142944,680.6955)" />
    <path
       style="fill:#e00052;fill-opacity:1;fill-rule:nonzero;stroke:none"
       d="m 31.312273,54.26596 c -1.878565,-0.2144 -3.247246,-0.821556 -4.684582,-2.078109 -3.024201,-2.64383 -3.828106,-6.754338 -2.03349,-10.3976 2.977671,-6.044993 12.118498,-6.521892 15.889324,-0.828984 1.356877,2.04851 1.736991,5.124656 0.923058,7.470005 -1.429415,4.118858 -5.337185,6.377618 -10.09431,5.834688 z m 3.355232,-3.28424 c 1.969266,-0.636002 3.519131,-2.678096 3.675134,-4.84234 0.273644,-3.796296 -2.910316,-6.66213 -6.636405,-5.973325 -1.944561,0.359472 -3.061538,1.182973 -3.932795,2.899487 -0.538336,1.060608 -0.59719,1.322354 -0.588853,2.618872 0.0075,1.172637 0.0949,1.621431 0.469801,2.413576 1.21988,2.577527 4.185481,3.796955 7.013118,2.88373 l 0,0 z"
       id="path3774"
       inkscape:connector-curvature="0"
       transform="translate(-8.2142944,680.6955)" />
    <path
       style="fill:#e00052;fill-opacity:1;fill-rule:nonzero;stroke:none"
       d="m 59.532185,60.712037 c -0.06183,-0.451094 -0.112417,-2.559156 -0.112417,-4.684583 0,-2.143635 -0.07015,-3.864414 -0.157529,-3.864414 -0.08664,0 -0.54405,0.319713 -1.016466,0.710474 -1.37934,1.140927 -2.441728,1.449874 -4.748024,1.380744 -1.814762,-0.0544 -2.03505,-0.101507 -3.300616,-0.705862 -3.64561,-1.740917 -5.715595,-5.851889 -4.898989,-9.729354 1.256348,-5.965479 8.355516,-8.864175 12.903925,-5.268864 0.492742,0.389489 0.9683,0.708163 1.056796,0.708163 0.0885,0 0.160903,-0.397748 0.160903,-0.883884 l 0,-0.883883 1.679379,0 1.679378,0 0,12.020815 0,12.020816 -1.566962,0 -1.566962,0 -0.112416,-0.820168 z m -3.592078,-9.714314 c 1.127307,-0.384112 2.469122,-1.634982 3.07301,-2.86473 0.425292,-0.866058 0.49469,-1.219793 0.492559,-2.510691 -0.0021,-1.291917 -0.07029,-1.631902 -0.486119,-2.424771 -1.458252,-2.780488 -4.577944,-3.88827 -7.30529,-2.594059 -1.00909,0.478844 -2.310288,1.919867 -2.718318,3.010423 -1.661248,4.440084 2.523719,8.890023 6.944158,7.383828 z"
       id="path3776"
       inkscape:connector-curvature="0"
       transform="translate(-8.2142944,680.6955)" />
    <path
       style="fill:#e00052;fill-opacity:1;fill-rule:nonzero;stroke:none"
       d="m 72.412855,54.036134 c -1.292366,-0.410451 -2.531067,-1.150629 -3.430033,-2.049594 -3.479234,-3.479234 -3.470481,-8.985569 0.01976,-12.429495 2.21324,-2.183872 4.890181,-3.009496 7.776797,-2.398526 1.169976,0.247633 1.779689,0.556332 2.804311,1.419831 0.44378,0.373995 0.861415,0.679991 0.928078,0.679991 0.06666,0 0.121205,-0.397748 0.121205,-0.883884 l 0,-0.883883 1.679379,0 1.679379,0 0,8.220116 0,8.220117 -1.670557,0 -1.670557,0 -0.05302,-0.961347 -0.05302,-0.961347 -1.044126,0.782218 c -1.553793,1.16404 -2.599581,1.496419 -4.663554,1.482203 -0.944318,-0.0065 -2.035139,-0.112884 -2.424048,-0.2364 z m 4.674321,-3.035472 c 1.241894,-0.368803 2.548212,-1.583344 3.217958,-2.991875 1.887206,-3.968952 -1.49707,-8.562156 -5.7934,-7.86291 -1.271249,0.206901 -2.140902,0.693397 -3.13028,1.751122 -1.048736,1.121184 -1.362087,1.852393 -1.477961,3.448848 -0.169396,2.333856 1.057203,4.404389 3.216469,5.429488 1.240507,0.588923 2.501649,0.660553 3.967214,0.225327 z"
       id="path3778"
       inkscape:connector-curvature="0"
       transform="translate(-8.2142944,680.6955)" />
    <path
       style="fill:#c2c2c2;fill-opacity:1;fill-rule:nonzero;stroke:none"
       d="m 89.118253,43.235817 0,-10.694991 1.59099,0 1.59099,0 0,10.694991 0,10.69499 -1.59099,0 -1.59099,0 0,-10.69499 z"
       id="path3780"
       inkscape:connector-curvature="0"
       transform="translate(-8.2142944,680.6955)" />
    <path
       style="fill:#c2c2c2;fill-opacity:1;fill-rule:nonzero;stroke:none"
       d="m 31.284543,32.319856 c -0.600739,-0.510443 -1.126753,-1.031851 -1.168922,-1.158683 -0.09675,-0.291007 1.562584,-1.847612 3.406361,-3.195472 7.322459,-5.35295 16.473638,-6.884575 24.939131,-4.174042 3.46538,1.109566 8.204569,3.991664 10.592985,6.442035 l 0.883883,0.906811 -0.707106,0.606953 c -0.388909,0.333825 -1.000367,0.815315 -1.358796,1.069978 l -0.651689,0.463025 -1.292855,-1.12235 C 64.042121,30.52135 63.087131,29.8638 61.010758,28.77271 c -2.212972,-1.16287 -4.32653,-1.927339 -6.405776,-2.316955 -7.549061,-1.414567 -15.060615,0.726454 -20.973751,5.978156 -0.5041,0.447712 -0.992571,0.814022 -1.085491,0.814022 -0.09292,0 -0.660459,-0.417635 -1.261197,-0.928077 z"
       id="path3782"
       inkscape:connector-curvature="0"
       transform="translate(-8.2142944,680.6955)" />
    <path
       style="fill:#e00052;fill-opacity:1;fill-rule:nonzero;stroke:none"
       d="m 89.118253,43.235817 0,-10.694991 1.59099,0 1.59099,0 0,10.694991 0,10.69499 -1.59099,0 -1.59099,0 0,-10.69499 z"
       id="path3784"
       inkscape:connector-curvature="0"
       transform="translate(-8.2142944,680.6955)" />
    <path
       style="fill:#908f91;fill-opacity:1;fill-rule:nonzero;stroke:none"
       d="m 20.654113,30.244938 c -0.563106,-0.382382 -1.216114,-0.846491 -1.451129,-1.031353 l -0.427298,-0.336113 0.390469,-0.525043 c 1.607898,-2.162059 5.462713,-5.773534 8.132623,-7.619242 5.039803,-3.484013 10.796361,-5.756614 16.872837,-6.66114 2.824149,-0.420395 9.223492,-0.370271 11.958146,0.09366 7.693336,1.305178 13.679787,4.128868 19.78492,9.332156 1.434453,1.222556 4.033975,3.969543 4.681358,4.94692 0.258036,0.389563 0.244937,0.434117 -0.24291,0.826304 -0.283609,0.227996 -0.934619,0.669727 -1.446686,0.981623 L 77.975408,30.819798 75.846306,28.59243 C 72.602952,25.199382 69.88495,23.149403 66.02137,21.182239 60.931025,18.590462 56.127389,17.472534 49.962215,17.444867 c -5.961252,-0.02675 -10.475089,0.979255 -15.775784,3.515975 -3.933311,1.882339 -8.559509,5.387486 -11.157594,8.453809 -0.715416,0.844352 -1.312038,1.533012 -1.325825,1.530356 -0.01379,-0.0027 -0.485792,-0.317687 -1.048899,-0.700069 z"
       id="path3786"
       inkscape:connector-curvature="0"
       transform="translate(-8.2142944,680.6955)" />
    <path
       style="fill:#525052;fill-opacity:1;fill-rule:nonzero;stroke:none"
       d="M 10.16261,28.114398 C 9.4683532,27.726297 8.8094759,27.299295 8.6984383,27.165503 8.2299521,26.601011 12.436968,21.276598 15.854748,18.108452 22.089544,12.329047 28.921492,8.5408802 36.969128,6.4009877 43.414915,4.6870318 51.284156,4.3322584 58.447496,5.4326663 70.106621,7.2237016 81.353222,13.761749 89.113759,23.26005 c 1.123683,1.375301 2.656144,3.564866 2.656144,3.795072 0,0.165235 -2.670063,1.773394 -2.944408,1.773394 -0.09531,0 -0.827978,-0.875123 -1.628144,-1.944717 -1.733145,-2.316719 -4.9454,-5.694152 -7.271486,-7.645395 C 74.77068,14.913965 67.678825,11.331516 61.292662,9.8258475 52.827473,7.8300063 43.491267,8.1771363 35.3366,10.790922 c -8.992841,2.882442 -17.338779,8.991432 -22.650038,16.579186 -0.56147,0.802124 -1.075036,1.4565 -1.14126,1.454169 -0.06622,-0.0023 -0.688435,-0.321778 -1.382692,-0.709879 z"
       id="path3788"
       inkscape:connector-curvature="0"
       transform="translate(-8.2142944,680.6955)" />
  </g>
</svg>
