<?xml version="1.0" encoding="UTF-8" standalone="no"?>
<!-- Created with Inkscape (http://www.inkscape.org/) -->

<svg
   xmlns:dc="http://purl.org/dc/elements/1.1/"
   xmlns:cc="http://creativecommons.org/ns#"
   xmlns:rdf="http://www.w3.org/1999/02/22-rdf-syntax-ns#"
   xmlns:svg="http://www.w3.org/2000/svg"
   xmlns="http://www.w3.org/2000/svg"
   xmlns:sodipodi="http://sodipodi.sourceforge.net/DTD/sodipodi-0.dtd"
   xmlns:inkscape="http://www.inkscape.org/namespaces/inkscape"
   width="1052"
   height="1052.36"
   id="svg2"
   version="1.1"
   inkscape:version="0.48.3.1 r9886"
   sodipodi:docname="New document 1">
  <defs
     id="defs4" />
  <sodipodi:namedview
     id="base"
     pagecolor="#ffffff"
     bordercolor="#666666"
     borderopacity="1.0"
     inkscape:pageopacity="0.0"
     inkscape:pageshadow="2"
     inkscape:zoom="0.7"
     inkscape:cx="375"
     inkscape:cy="520"
     inkscape:document-units="px"
     inkscape:current-layer="layer1"
     showgrid="false"
     inkscape:window-width="2560"
     inkscape:window-height="1416"
     inkscape:window-x="0"
     inkscape:window-y="24"
     inkscape:window-maximized="1" />
  <metadata
     id="metadata7">
    <rdf:RDF>
      <cc:Work
         rdf:about="">
        <dc:format>image/svg+xml</dc:format>
        <dc:type
           rdf:resource="http://purl.org/dc/dcmitype/StillImage" />
        <dc:title></dc:title>
      </cc:Work>
    </rdf:RDF>
  </metadata>
  <g
     inkscape:label="Layer 1"
     inkscape:groupmode="layer"
     id="layer1"
     transform="translate(0,-0.00218262)">
    <path
       id="path1441"
       d="m 315.16707,1024.6334 c -18.44103,-42.17064 5.72625,-88.71634 -3.49684,-132.88014 2.91115,-71.5013 8.42284,-147.4232 -27.66029,-212.4398 -24.66844,-46.784 -67.29192,-88.89247 -63.96014,-145.61903 3.28345,-62.85434 -19.67611,-124.48442 -12.60602,-187.11439 17.66562,-41.23331 65.49282,-59.03432 83.5545,-100.93232 33.51021,-25.04492 19.80034,-80.47426 70.32396,-88.23842 44.99603,-10.30216 84.59423,-33.82895 120.70753,-61.886793 40.4348,-29.09583 83.3576,-59.41089 133.2099,-68.1498 63.3399,-7.54945 64.0544,65.52497 98.1906,96.491233 50.8195,-1.88347 114.8536,17.85019 118.7234,78.90097 9.4249,63.08418 -22.3537,123.48491 -15.3618,186.67485 3.7479,45.77282 -28.6594,81.81745 -36.1538,123.80045 -5.761,56.97818 6.1849,126.47735 -42.3063,168.42865 -23.2726,40.6276 -15.2422,91.3566 -36.3614,133.7453 -18.6468,44.7851 -2.893,92.5353 -11.1125,138.4023 -20.2227,28.4359 -26.5488,-43.4299 -32.4067,-57.5269 -2.1896,-49.5839 -74.616,-62.9641 -74.9649,-5.615 0.3303,20.1476 -14.0806,80.7317 -30.2078,35.4918 6.7746,-38.0377 -1.5127,-74.3951 -35.5927,-96.5162 -6.1003,-29.9459 53.0227,-18.5694 54.0888,-54.363 1.3971,-25.2402 51.7792,-60.9818 41.1884,-15.7854 -12.7329,50.421 53.1186,71.9272 68.7866,20.3543 28.2096,-43.2267 -29.6618,-98.1262 28.1138,-123.8382 44.8524,-26.3415 38.8572,-80.43485 43.3287,-124.76007 -1.6847,-45.01812 37.3505,-79.2044 33.5363,-124.09509 -6.5905,-21.73153 14.0969,-70.86638 -30.4834,-50.29198 -17.4576,14.27314 -96.0079,-11.73783 -51.6301,25.98683 36.2258,6.60929 24.1277,33.17838 18.8837,55.9453 30.4905,38.97257 -42.7035,26.21436 -34.2728,69.78703 -8.4754,37.36531 -52.1729,32.88435 -64.5027,70.71516 -24.5665,18.31823 -16.391,57.96032 -19.3307,74.62902 -34.6921,-14.8288 -34.1819,-68.20512 -71.6143,-84.81137 -40.012,-30.48977 -96.591,-40.45752 -143.94416,-24.67826 -39.35747,-4.06785 10.43086,-39.82171 -15.72765,-60.57262 -0.73711,-22.82403 25.24601,-43.90141 -8.89114,-60.0594 -27.91551,-12.34747 -17.23711,-37.12138 10.33151,-24.26997 27.58084,1.61494 59.70734,-61.46975 57.48904,-6.0965 8.0102,24.71528 26.6327,51.02996 -13.9013,50.20554 -47.32741,25.19752 10.3959,82.75945 49.677,59.36942 38.8969,-7.30375 69.3161,-40.352 84.3345,-75.52608 0.043,-42.32164 -16.769,-85.70855 -26.2587,-127.48327 -17.8786,-54.97828 -75.2386,-56.53819 -118.6206,-34.01857 -52.30801,11.79909 -108.82744,22.78482 -150.83807,58.18161 -34.1464,31.36276 -10.13233,78.74684 -12.82177,118.13586 5.03267,55.28883 -6.98913,115.52445 24.52967,164.96621 24.74029,47.4335 66.01208,88.9818 66.49428,145.7135 10.37546,47.4331 -4.02163,94.8288 1.67708,141.7422 10.9791,40.1018 17.41343,95.8288 -11.53834,130.79114 -3.38256,1.501 -7.5286,1.2148 -10.60235,-0.8901 z m 277.4543,-623.68853 c 35.0277,-42.55287 3.3909,-96.36935 -6.8496,-141.74224 1.6084,-50.22532 -41.4113,-90.45064 -89.7268,-62.49374 -45.1914,13.97353 -86.5588,42.85965 -135.82085,39.18008 -24.71158,-6.38982 -60.52328,35.26585 -16.28308,23.90021 53.02013,-7.26308 103.78953,-44.13555 158.43133,-29.30268 44.9904,19.02485 41.3609,78.27128 59.7421,117.38525 8.9645,12.70565 5.8204,65.84444 30.5069,53.07312 z m 62.4788,-50.15407 c 10.1417,-41.75617 -12.8321,-84.42417 -11.8803,-126.44284 -15.5512,-36.83964 -21.6578,-103.85596 -75.8928,-95.58554 -62.2694,11.64707 -119.0746,41.39368 -179.03981,60.74848 -34.96031,-4.74704 -31.14942,42.14874 1.73842,20.62249 48.43149,-15.55153 95.22089,-37.40086 145.05579,-47.81112 56.6587,-7.20463 67.0955,62.69441 79.0134,103.13968 11.2341,23.47668 6.8248,88.62704 41.0053,85.32885 z m 91.7623,-38.30732 c 50.1162,-8.38261 68.3758,-63.10143 60.8754,-107.43228 -0.8035,-42.4887 -79.6033,-77.1535 -96.5699,-34.00992 9.8428,34.17132 66.0785,3.53254 71.7112,48.80204 21.1201,58.5226 -49.4967,40.65525 -80.3764,29.2471 -42.8067,-4.2094 -28.4958,73.18034 11.4053,65.30337 10.9775,1.09531 22.2051,0.68198 32.9544,-1.91031 z m 10.8551,-70.55504 c 30.3281,-45.26476 -83.719,-46.42575 -50.9037,-11.41498 17.1825,2.84646 33.4167,10.21272 50.9037,11.41498 z m -86.6991,-44.80483 c 33.3054,-40.50895 -2.79,-105.153903 -33.8752,-135.121913 -43.0981,-7.99116 -91.0294,24.96484 -120.2721,50.102313 32.8564,-0.99601 72.3279,-26.699213 101.9524,3.22711 32.1661,16.69384 16.6691,70.09631 52.1949,81.79249 z"
       style="fill:#000000"
       inkscape:connector-curvature="0" />
  </g>
</svg>
